<svg aria-hidden="true" style="position: absolute; width: 0; height: 0; overflow: hidden;" version="1.1" xmlns="http://www.w3.org/2000/svg" xmlns:xlink="http://www.w3.org/1999/xlink">
<defs>
<symbol id="01" viewBox="0 0 32 32">
<path  d="M8.535 1.5c-3.885 0-7.035 3.15-7.035 7.035v0 15.070c0 3.885 3.15 7.035 7.035 7.035v0h15.070c3.885 0 7.035-3.15 7.035-7.035v0-15.070c0-3.885-3.15-7.035-7.035-7.035h-15.070zM0.5 8.535c0-4.438 3.597-8.035 8.035-8.035v0h15.070c4.438 0 8.035 3.597 8.035 8.035v0 15.070c0 4.438-3.597 8.035-8.035 8.035v0h-15.070c-4.438 0-8.035-3.597-8.035-8.035v-15.070zM16.946 10.536c-0.257-0.042-0.554-0.067-0.856-0.067-3.053 0-5.528 2.475-5.528 5.528 0 2.783 2.056 5.085 4.732 5.471l0.030 0.003c0.23 0.034 0.496 0.053 0.766 0.053 3.053 0 5.528-2.475 5.528-5.528 0-2.751-2.009-5.033-4.641-5.457l-0.032-0.004zM13.129 10.21c0.873-0.462 1.908-0.734 3.007-0.734 3.605 0 6.528 2.922 6.528 6.528 0 2.507-1.413 4.683-3.486 5.777l-0.036 0.017c-0.873 0.462-1.908 0.734-3.006 0.734-3.605 0-6.528-2.922-6.528-6.528 0-2.507 1.413-4.683 3.486-5.777l0.036-0.017zM24.359 7.281c-0.276 0-0.5 0.224-0.5 0.5s0.224 0.5 0.5 0.5v0h0.017c0.276 0 0.5-0.224 0.5-0.5s-0.224-0.5-0.5-0.5v0h-0.018z"></path>
</symbol>
<symbol id="02" viewBox="0 0 18 32">
<path fill="none"  stroke-linejoin="round" stroke-linecap="round" stroke-miterlimit="4" stroke-width="0.9412" d="M17.368 0.941h-4.48c-2.065 0.001-3.933 0.844-5.279 2.205l-0.001 0.001c-1.352 1.366-2.187 3.245-2.187 5.319 0 0.002 0 0.004 0 0.005v-0 4.518h-4.48v6.024h4.48v12.047h5.974v-12.047h4.48l1.494-6.024h-5.974v-4.518c0-0.399 0.158-0.782 0.438-1.064 0.269-0.272 0.643-0.441 1.056-0.441h4.48v-6.024z"></path>
</symbol>
<symbol id="03" viewBox="0 0 39 32">
<path fill="none" stroke-linejoin="round" stroke-linecap="round" stroke-miterlimit="4" stroke-width="1.1429" d="M37.461 1.16c-1.486 1.064-3.207 1.927-5.057 2.5l-0.127 0.034c-1.36-1.566-3.354-2.551-5.578-2.551-0.949 0-1.856 0.179-2.689 0.506l0.050-0.017c-1.444 0.563-2.633 1.52-3.466 2.738l-0.016 0.025c-0.799 1.168-1.276 2.611-1.276 4.165 0 0.036 0 0.071 0.001 0.107l-0-0.005v1.657c-0.135 0.004-0.294 0.006-0.453 0.006-2.887 0-5.611-0.697-8.013-1.932l0.099 0.046c-2.637-1.351-4.816-3.253-6.452-5.568l-0.037-0.055s-6.605 14.905 8.253 21.528c-3.022 2.083-6.763 3.327-10.794 3.327-0.268 0-0.534-0.005-0.799-0.016l0.038 0.001c14.857 8.28 33.016 0 33.016-19.043-0.002-0.487-0.050-0.962-0.14-1.422l0.008 0.047c1.638-1.622 2.84-3.681 3.416-5.988l0.019-0.088z"></path>
</symbol>
<symbol id="04" viewBox="0 0 32 32">
<path  d="M28 25l-1.414-1.414-2.586 2.585v-8.171h-2v8.172l-2.586-2.586-1.414 1.414 5 5 5-5z"></path>
<path  d="M10 28v-18h12v5h2v-9c-0.001-1.104-0.896-1.999-2-2h-12c-1.104 0.001-1.999 0.896-2 2v22c0.001 1.104 0.896 1.999 2 2h6v-2h-6zM10 6h12v2h-12v-2z"></path>
</symbol>
<symbol id="05" viewBox="0 0 32 32">
<path  d="M24 18.286c1.484 0 2.748 0.943 3.227 2.262l0.008 0.024h-11.234v-0.571h-8c0 0-0 0-0 0-0.888 0-1.619 0.676-1.706 1.541l-0.001 0.007-0.008 0.166v0.817c0 3.056 3.873 5.469 9.714 5.469v-0.571h8.538c-2.046 1.421-5.040 2.286-8.538 2.286-6.617 0-11.429-2.934-11.429-7.183v-0.817c0-1.894 1.535-3.429 3.429-3.429v0h16zM27.429 21.714v0.817c0 0.305-0.026 0.605-0.080 0.897h-11.349v-1.714h11.429zM27.005 24.571h-11.005v1.714h9.867c0.488-0.527 0.872-1.102 1.137-1.714zM22.805 8.286c0.071 0.569 0.071 1.145 0 1.714h-6.805v-1.714h6.805zM22.561 7.143c-0.202-0.653-0.473-1.221-0.813-1.74l0.016 0.026h-5.765v1.714h6.561zM16 2.286c1.889 0 3.6 0.765 4.84 2h-4.84v-0.286c-2.84 0-5.143 2.303-5.143 5.143s2.303 5.143 5.143 5.143v0-0.286h4.84c-1.24 1.236-2.951 2-4.84 2-3.787 0-6.857-3.070-6.857-6.857s3.070-6.857 6.857-6.857c0 0 0 0 0 0h-0zM21.765 12.857h-5.765v-1.714h6.56c-0.2 0.653-0.471 1.221-0.811 1.74l0.016-0.026z"></path>
</symbol>
<symbol id="06" viewBox="0 0 32 32">
<path  d="M8.666 13.333h-2.667v9.334h2.667v-9.334zM16.666 13.333h-2.667v9.334h2.667v-9.334zM27.999 25.333h-25.333v2.667h25.333v-2.667zM24.666 13.333h-2.667v9.334h2.667v-9.334zM15.333 4.347l6.946 3.653h-13.893l6.947-3.653zM15.333 1.333l-12.667 6.667v2.667h25.333v-2.667l-12.666-6.667z"></path>
</symbol>
<symbol id="07" viewBox="0 0 32 32">
<path d="M23 20.515c0-4.615-3.78-5.141-6.817-5.563-3.31-0.46-5.183-0.86-5.183-3.71 0-2.392 2.507-3.242 4.654-3.242 0.065-0.002 0.141-0.004 0.218-0.004 2.171 0 4.103 1.024 5.339 2.616l0.011 0.015 1.556-1.256c-1.386-1.77-3.418-2.979-5.736-3.272l-0.043-0.004v-3.096h-2v3.022c-3.615 0.22-6 2.259-6 5.22 0 4.73 3.83 5.263 6.907 5.69 3.253 0.453 5.093 0.842 5.093 3.583 0 3.032-3.133 3.485-5 3.485-3.43 0-4.878-0.964-6.222-2.628l-1.556 1.256c1.557 2.037 3.988 3.337 6.722 3.337 0.020 0 0.039-0 0.059-0l-0.003 0v3.035h2v-3.045c3.726-0.304 6-2.327 6-5.44z"></path>
</symbol>
<symbol id="burgermenu" viewBox="0 0 32 32"><path d="M0 8.889V5.333h32v3.556H0zm0 8.889h32v-3.556H0v3.556zm0 8.889h32v-3.556H0v3.556z"/></symbol><symbol id="burgerclose" viewBox="0 0 32 32"><path d="M31.439 3.166L28.273 0 15.72 12.553 3.167 0 .001 3.166l12.553 12.553L.001 28.272l3.166 3.166L15.72 18.885l12.553 12.553 3.166-3.166-12.553-12.553L31.439 3.166z"/></symbol><symbol id="close" viewBox="0 0 32 32"><path d="M32 3.223L28.777 0 16 12.777 3.223 0 0 3.223 12.777 16 0 28.777 3.223 32 16 19.223 28.777 32 32 28.777 19.223 16 32 3.223z"/></symbol>
</defs>
</svg>
